# xmcd
#
# Track frame offsets:
#	182
#	18955
#	42257
#	65742
#	85350
#	102750
#	124072
#	141382
#	156440
#	179537
#	201910
#
# Disc length: 2968 seconds
#
# Revision: 3
# Processed by: cddbd v1.5.2PL0 Copyright (c) Steve Scherf et al.
# Submitted via: EasyCDDAExtractor 2010.4.0.0
#
DISCID=9f0b960b
DTITLE=T-Lou and his Zydeco Band - Super Hot
DYEAR=1993
DGENRE=zydeco
TTITLE0=Super Hot
TTITLE1=Whirley Bird
TTITLE2=Jump The Zydeco
TTITLE3=Shake A Hand
TTITLE4=Hop Jump-Skip
TTITLE5=One More Chance
TTITLE6=They Call Me T-Lou
TTITLE7=Emily
TTITLE8=L.A. Rockin'
TTITLE9=Waltzin' Across The Floor
TTITLE10=Since I Met You Baby
EXTD=
EXTT0=
EXTT1=
EXTT2=
EXTT3=
EXTT4=
EXTT5=
EXTT6=
EXTT7=
EXTT8=
EXTT9=
EXTT10=
PLAYORDER=
